<mxfile host="Electron" modified="2024-01-30T06:09:26.243Z" agent="Mozilla/5.0 (Windows NT 10.0; Win64; x64) AppleWebKit/537.36 (KHTML, like Gecko) draw.io/22.0.3 Chrome/114.0.5735.289 Electron/25.8.4 Safari/537.36" etag="bUK1eCrk3sHMwnnAbGoo" version="22.0.3" type="device">
  <diagram id="_VFTBSKEBvOXXveK2GOR" name="第 1 页">
    <mxGraphModel dx="2044" dy="1166" grid="1" gridSize="10" guides="1" tooltips="1" connect="1" arrows="1" fold="1" page="1" pageScale="1" pageWidth="827" pageHeight="1169" math="0" shadow="0">
      <root>
        <mxCell id="0" />
        <mxCell id="1" parent="0" />
        <mxCell id="jjL_H0jXXh8-tqAnvM_W-17" value="Shard 0" style="text;html=1;strokeColor=none;fillColor=none;align=center;verticalAlign=middle;whiteSpace=wrap;rounded=0;fontSize=20;container=0;fontFamily=Times New Roman;fontStyle=1" parent="1" vertex="1">
          <mxGeometry x="9.999999999999996" y="296" width="103.85150812064965" height="30" as="geometry" />
        </mxCell>
        <mxCell id="jjL_H0jXXh8-tqAnvM_W-18" value="Shard 1" style="text;html=1;strokeColor=none;fillColor=none;align=center;verticalAlign=middle;whiteSpace=wrap;rounded=0;fontSize=20;container=0;fontFamily=Times New Roman;fontStyle=1" parent="1" vertex="1">
          <mxGeometry x="10" y="388" width="103.85150812064965" height="30" as="geometry" />
        </mxCell>
        <mxCell id="jjL_H0jXXh8-tqAnvM_W-19" value="Shard K-1" style="text;html=1;strokeColor=none;fillColor=none;align=center;verticalAlign=middle;whiteSpace=wrap;rounded=0;fontSize=20;container=0;fontFamily=Times New Roman;fontStyle=1" parent="1" vertex="1">
          <mxGeometry x="10.000000000000012" y="514" width="119.2" height="30" as="geometry" />
        </mxCell>
        <mxCell id="jjL_H0jXXh8-tqAnvM_W-20" value="" style="endArrow=classic;html=1;rounded=0;exitX=1;exitY=0.5;exitDx=0;exitDy=0;strokeWidth=2;fontFamily=Times New Roman;fontStyle=1" parent="1" source="jjL_H0jXXh8-tqAnvM_W-5" edge="1">
          <mxGeometry width="50" height="50" relative="1" as="geometry">
            <mxPoint x="718.5313225058004" y="536" as="sourcePoint" />
            <mxPoint x="458.90255220417635" y="336" as="targetPoint" />
          </mxGeometry>
        </mxCell>
        <mxCell id="jjL_H0jXXh8-tqAnvM_W-33" value="Shard Block" style="text;html=1;strokeColor=none;fillColor=none;align=center;verticalAlign=middle;whiteSpace=wrap;rounded=0;fontSize=20;container=0;fontFamily=Times New Roman;fontStyle=1" parent="1" vertex="1">
          <mxGeometry x="279.99" y="266" width="111.79" height="30" as="geometry" />
        </mxCell>
        <mxCell id="jjL_H0jXXh8-tqAnvM_W-34" value="Prepare Block" style="text;html=1;strokeColor=none;fillColor=none;align=center;verticalAlign=middle;whiteSpace=wrap;rounded=0;fontSize=20;container=0;fontFamily=Times New Roman;fontStyle=1" parent="1" vertex="1">
          <mxGeometry x="436.78" y="266" width="127.06" height="30" as="geometry" />
        </mxCell>
        <mxCell id="jjL_H0jXXh8-tqAnvM_W-44" value="Allocation Block" style="text;html=1;strokeColor=none;fillColor=none;align=center;verticalAlign=middle;whiteSpace=wrap;rounded=0;fontSize=20;container=0;fontFamily=Times New Roman;fontStyle=1" parent="1" vertex="1">
          <mxGeometry x="789.9" y="266" width="148.81" height="30" as="geometry" />
        </mxCell>
        <mxCell id="jjL_H0jXXh8-tqAnvM_W-54" value="State Block" style="text;html=1;strokeColor=none;fillColor=none;align=center;verticalAlign=middle;whiteSpace=wrap;rounded=0;fontSize=20;container=0;fontFamily=Times New Roman;fontStyle=1" parent="1" vertex="1">
          <mxGeometry x="1175.6725522041763" y="266" width="103.85150812064965" height="30" as="geometry" />
        </mxCell>
        <mxCell id="jjL_H0jXXh8-tqAnvM_W-65" value="" style="endArrow=classic;html=1;rounded=0;exitX=1;exitY=0.5;exitDx=0;exitDy=0;strokeWidth=2;entryX=0;entryY=0.5;entryDx=0;entryDy=0;fontFamily=Times New Roman;fontStyle=1" parent="1" source="jjL_H0jXXh8-tqAnvM_W-22" target="jjL_H0jXXh8-tqAnvM_W-36" edge="1">
          <mxGeometry width="50" height="50" relative="1" as="geometry">
            <mxPoint x="597.3712296983758" y="335.5" as="sourcePoint" />
            <mxPoint x="666.6055684454756" y="335.5" as="targetPoint" />
          </mxGeometry>
        </mxCell>
        <mxCell id="jjL_H0jXXh8-tqAnvM_W-67" value="" style="endArrow=classic;html=1;rounded=0;strokeWidth=2;entryX=0;entryY=0.5;entryDx=0;entryDy=0;fontFamily=Times New Roman;fontStyle=1;exitX=0.926;exitY=0.513;exitDx=0;exitDy=0;exitPerimeter=0;" parent="1" source="jjL_H0jXXh8-tqAnvM_W-25" target="jjL_H0jXXh8-tqAnvM_W-39" edge="1">
          <mxGeometry width="50" height="50" relative="1" as="geometry">
            <mxPoint x="543" y="428" as="sourcePoint" />
            <mxPoint x="735.8399071925754" y="428" as="targetPoint" />
          </mxGeometry>
        </mxCell>
        <mxCell id="jjL_H0jXXh8-tqAnvM_W-68" value="" style="endArrow=classic;html=1;rounded=0;exitX=1;exitY=0.5;exitDx=0;exitDy=0;strokeWidth=2;entryX=0;entryY=0.5;entryDx=0;entryDy=0;fontFamily=Times New Roman;fontStyle=1" parent="1" source="jjL_H0jXXh8-tqAnvM_W-28" target="jjL_H0jXXh8-tqAnvM_W-42" edge="1">
          <mxGeometry width="50" height="50" relative="1" as="geometry">
            <mxPoint x="597.3712296983758" y="553.5" as="sourcePoint" />
            <mxPoint x="735.8399071925754" y="554" as="targetPoint" />
          </mxGeometry>
        </mxCell>
        <mxCell id="jjL_H0jXXh8-tqAnvM_W-69" value="" style="endArrow=classic;html=1;rounded=0;exitX=1;exitY=0.5;exitDx=0;exitDy=0;strokeWidth=2;entryX=0;entryY=0.5;entryDx=0;entryDy=0;fontFamily=Times New Roman;fontStyle=1" parent="1" source="jjL_H0jXXh8-tqAnvM_W-42" target="jjL_H0jXXh8-tqAnvM_W-52" edge="1">
          <mxGeometry width="50" height="50" relative="1" as="geometry">
            <mxPoint x="959.1206496519721" y="553.5" as="sourcePoint" />
            <mxPoint x="1097.5893271461716" y="554" as="targetPoint" />
          </mxGeometry>
        </mxCell>
        <mxCell id="jjL_H0jXXh8-tqAnvM_W-70" value="" style="endArrow=classic;html=1;rounded=0;exitX=1;exitY=0.5;exitDx=0;exitDy=0;strokeWidth=2;entryX=0;entryY=0.5;entryDx=0;entryDy=0;fontFamily=Times New Roman;fontStyle=1" parent="1" source="jjL_H0jXXh8-tqAnvM_W-39" target="jjL_H0jXXh8-tqAnvM_W-49" edge="1">
          <mxGeometry width="50" height="50" relative="1" as="geometry">
            <mxPoint x="959.1206496519721" y="427.5" as="sourcePoint" />
            <mxPoint x="1097.5893271461716" y="428" as="targetPoint" />
          </mxGeometry>
        </mxCell>
        <mxCell id="jjL_H0jXXh8-tqAnvM_W-71" value="" style="endArrow=classic;html=1;rounded=0;exitX=1;exitY=0.5;exitDx=0;exitDy=0;strokeWidth=2;entryX=0;entryY=0.5;entryDx=0;entryDy=0;fontFamily=Times New Roman;fontStyle=1" parent="1" source="jjL_H0jXXh8-tqAnvM_W-36" target="jjL_H0jXXh8-tqAnvM_W-46" edge="1">
          <mxGeometry width="50" height="50" relative="1" as="geometry">
            <mxPoint x="959.1206496519721" y="335.5" as="sourcePoint" />
            <mxPoint x="1097.5893271461716" y="336" as="targetPoint" />
          </mxGeometry>
        </mxCell>
        <mxCell id="jjL_H0jXXh8-tqAnvM_W-72" value="" style="endArrow=classic;html=1;rounded=0;exitX=1;exitY=0.5;exitDx=0;exitDy=0;strokeWidth=2;fontFamily=Times New Roman;fontStyle=1;entryX=0;entryY=0.5;entryDx=0;entryDy=0;" parent="1" source="jjL_H0jXXh8-tqAnvM_W-46" target="jjL_H0jXXh8-tqAnvM_W-56" edge="1">
          <mxGeometry width="50" height="50" relative="1" as="geometry">
            <mxPoint x="1326.0626450116008" y="335.5" as="sourcePoint" />
            <mxPoint x="1395.2969837587007" y="336" as="targetPoint" />
          </mxGeometry>
        </mxCell>
        <mxCell id="jjL_H0jXXh8-tqAnvM_W-73" value="" style="endArrow=classic;html=1;rounded=0;exitX=1;exitY=0.5;exitDx=0;exitDy=0;strokeWidth=2;fontFamily=Times New Roman;fontStyle=1;entryX=0;entryY=0.5;entryDx=0;entryDy=0;" parent="1" source="jjL_H0jXXh8-tqAnvM_W-49" target="jjL_H0jXXh8-tqAnvM_W-59" edge="1">
          <mxGeometry width="50" height="50" relative="1" as="geometry">
            <mxPoint x="1326.0626450116008" y="427.5" as="sourcePoint" />
            <mxPoint x="1395.2969837587007" y="428" as="targetPoint" />
          </mxGeometry>
        </mxCell>
        <mxCell id="jjL_H0jXXh8-tqAnvM_W-74" value="" style="endArrow=classic;html=1;rounded=0;exitX=1;exitY=0.5;exitDx=0;exitDy=0;strokeWidth=2;fontFamily=Times New Roman;fontStyle=1;entryX=0;entryY=0.5;entryDx=0;entryDy=0;" parent="1" source="jjL_H0jXXh8-tqAnvM_W-52" target="jjL_H0jXXh8-tqAnvM_W-62" edge="1">
          <mxGeometry width="50" height="50" relative="1" as="geometry">
            <mxPoint x="1326.0626450116008" y="553.5" as="sourcePoint" />
            <mxPoint x="1395.2969837587007" y="554" as="targetPoint" />
          </mxGeometry>
        </mxCell>
        <mxCell id="jjL_H0jXXh8-tqAnvM_W-76" value="Shard Block" style="text;html=1;strokeColor=none;fillColor=none;align=center;verticalAlign=middle;whiteSpace=wrap;rounded=0;fontSize=20;container=0;fontFamily=Times New Roman;fontStyle=1" parent="1" vertex="1">
          <mxGeometry x="1324.8799999999999" y="266" width="113.46" height="30" as="geometry" />
        </mxCell>
        <mxCell id="jjL_H0jXXh8-tqAnvM_W-85" value="" style="endArrow=classic;html=1;rounded=0;exitX=1;exitY=0.5;exitDx=0;exitDy=0;fontFamily=Times New Roman;fontStyle=1" parent="1" source="jjL_H0jXXh8-tqAnvM_W-22" edge="1">
          <mxGeometry width="50" height="50" relative="1" as="geometry">
            <mxPoint x="718.5313225058004" y="519" as="sourcePoint" />
            <mxPoint x="793" y="420" as="targetPoint" />
          </mxGeometry>
        </mxCell>
        <mxCell id="jjL_H0jXXh8-tqAnvM_W-86" value="" style="endArrow=classic;html=1;rounded=0;fontFamily=Times New Roman;fontStyle=1;exitX=1;exitY=0.5;exitDx=0;exitDy=0;" parent="1" source="jjL_H0jXXh8-tqAnvM_W-25" edge="1">
          <mxGeometry width="50" height="50" relative="1" as="geometry">
            <mxPoint x="597.3712296983758" y="439" as="sourcePoint" />
            <mxPoint x="773" y="340" as="targetPoint" />
          </mxGeometry>
        </mxCell>
        <mxCell id="jjL_H0jXXh8-tqAnvM_W-87" value="" style="endArrow=classic;html=1;rounded=0;exitX=1;exitY=0.5;exitDx=0;exitDy=0;fontFamily=Times New Roman;fontStyle=1" parent="1" source="jjL_H0jXXh8-tqAnvM_W-22" edge="1">
          <mxGeometry width="50" height="50" relative="1" as="geometry">
            <mxPoint x="614.6798143851508" y="449" as="sourcePoint" />
            <mxPoint x="793" y="550" as="targetPoint" />
          </mxGeometry>
        </mxCell>
        <mxCell id="jjL_H0jXXh8-tqAnvM_W-88" value="" style="endArrow=classic;html=1;rounded=0;exitX=1;exitY=0.5;exitDx=0;exitDy=0;fontFamily=Times New Roman;fontStyle=1" parent="1" source="jjL_H0jXXh8-tqAnvM_W-25" edge="1">
          <mxGeometry width="50" height="50" relative="1" as="geometry">
            <mxPoint x="614.6798143851508" y="329" as="sourcePoint" />
            <mxPoint x="783" y="550" as="targetPoint" />
          </mxGeometry>
        </mxCell>
        <mxCell id="jjL_H0jXXh8-tqAnvM_W-89" value="" style="endArrow=classic;html=1;rounded=0;exitX=1;exitY=0.5;exitDx=0;exitDy=0;fontFamily=Times New Roman;fontStyle=1" parent="1" source="jjL_H0jXXh8-tqAnvM_W-28" edge="1">
          <mxGeometry width="50" height="50" relative="1" as="geometry">
            <mxPoint x="614.6798143851508" y="449" as="sourcePoint" />
            <mxPoint x="793" y="430" as="targetPoint" />
          </mxGeometry>
        </mxCell>
        <mxCell id="jjL_H0jXXh8-tqAnvM_W-90" value="" style="endArrow=classic;html=1;rounded=0;exitX=1;exitY=0.5;exitDx=0;exitDy=0;fontFamily=Times New Roman;fontStyle=1" parent="1" source="jjL_H0jXXh8-tqAnvM_W-28" edge="1">
          <mxGeometry width="50" height="50" relative="1" as="geometry">
            <mxPoint x="597.3712296983758" y="679" as="sourcePoint" />
            <mxPoint x="783" y="340" as="targetPoint" />
          </mxGeometry>
        </mxCell>
        <mxCell id="jjL_H0jXXh8-tqAnvM_W-91" value="" style="endArrow=classic;html=1;rounded=0;fontFamily=Times New Roman;fontStyle=1;exitX=1;exitY=0.5;exitDx=0;exitDy=0;" parent="1" source="jjL_H0jXXh8-tqAnvM_W-36" edge="1">
          <mxGeometry width="50" height="50" relative="1" as="geometry">
            <mxPoint x="903" y="320" as="sourcePoint" />
            <mxPoint x="1163" y="420" as="targetPoint" />
          </mxGeometry>
        </mxCell>
        <mxCell id="jjL_H0jXXh8-tqAnvM_W-92" value="" style="endArrow=classic;html=1;rounded=0;fontFamily=Times New Roman;fontStyle=1;exitX=0.904;exitY=0.525;exitDx=0;exitDy=0;exitPerimeter=0;" parent="1" source="jjL_H0jXXh8-tqAnvM_W-39" edge="1">
          <mxGeometry width="50" height="50" relative="1" as="geometry">
            <mxPoint x="903" y="430" as="sourcePoint" />
            <mxPoint x="1133" y="340" as="targetPoint" />
          </mxGeometry>
        </mxCell>
        <mxCell id="jjL_H0jXXh8-tqAnvM_W-93" value="" style="endArrow=classic;html=1;rounded=0;exitX=1;exitY=0.5;exitDx=0;exitDy=0;fontFamily=Times New Roman;fontStyle=1" parent="1" source="jjL_H0jXXh8-tqAnvM_W-42" edge="1">
          <mxGeometry width="50" height="50" relative="1" as="geometry">
            <mxPoint x="959.1206496519721" y="639" as="sourcePoint" />
            <mxPoint x="1151" y="340" as="targetPoint" />
          </mxGeometry>
        </mxCell>
        <mxCell id="jjL_H0jXXh8-tqAnvM_W-94" value="" style="endArrow=classic;html=1;rounded=0;fontFamily=Times New Roman;fontStyle=1;exitX=1;exitY=0.5;exitDx=0;exitDy=0;" parent="1" source="jjL_H0jXXh8-tqAnvM_W-36" edge="1">
          <mxGeometry width="50" height="50" relative="1" as="geometry">
            <mxPoint x="903" y="320" as="sourcePoint" />
            <mxPoint x="1163" y="550" as="targetPoint" />
          </mxGeometry>
        </mxCell>
        <mxCell id="jjL_H0jXXh8-tqAnvM_W-95" value="" style="endArrow=classic;html=1;rounded=0;fontFamily=Times New Roman;fontStyle=1;exitX=1;exitY=0.5;exitDx=0;exitDy=0;" parent="1" source="jjL_H0jXXh8-tqAnvM_W-42" edge="1">
          <mxGeometry width="50" height="50" relative="1" as="geometry">
            <mxPoint x="903" y="640" as="sourcePoint" />
            <mxPoint x="1163" y="430" as="targetPoint" />
          </mxGeometry>
        </mxCell>
        <mxCell id="jjL_H0jXXh8-tqAnvM_W-96" value="" style="endArrow=classic;html=1;rounded=0;fontFamily=Times New Roman;fontStyle=1;exitX=1;exitY=0.5;exitDx=0;exitDy=0;" parent="1" source="jjL_H0jXXh8-tqAnvM_W-39" edge="1">
          <mxGeometry width="50" height="50" relative="1" as="geometry">
            <mxPoint x="903" y="430" as="sourcePoint" />
            <mxPoint x="1153" y="550" as="targetPoint" />
          </mxGeometry>
        </mxCell>
        <mxCell id="jjL_H0jXXh8-tqAnvM_W-5" value="" style="whiteSpace=wrap;html=1;aspect=fixed;strokeWidth=2;fillColor=#dae8fc;strokeColor=#6c8ebf;container=0;fontFamily=Times New Roman;fontStyle=1" parent="1" vertex="1">
          <mxGeometry x="295.88953596287706" y="296" width="80" height="80" as="geometry" />
        </mxCell>
        <mxCell id="jjL_H0jXXh8-tqAnvM_W-6" value="" style="sketch=0;outlineConnect=0;fontColor=#232F3E;gradientColor=none;fillColor=#232F3D;strokeColor=none;dashed=0;verticalLabelPosition=bottom;verticalAlign=top;align=center;html=1;fontSize=12;fontStyle=1;aspect=fixed;pointerEvents=1;shape=mxgraph.aws4.recover;strokeWidth=1;container=0;fontFamily=Times New Roman;" parent="1" vertex="1">
          <mxGeometry x="306.8889791183295" y="307" width="58" height="58" as="geometry" />
        </mxCell>
        <mxCell id="jjL_H0jXXh8-tqAnvM_W-9" value="" style="whiteSpace=wrap;html=1;aspect=fixed;strokeWidth=2;container=0;fillColor=#dae8fc;strokeColor=#6c8ebf;fontFamily=Times New Roman;fontStyle=1" parent="1" vertex="1">
          <mxGeometry x="295.88953596287706" y="388" width="80" height="80" as="geometry" />
        </mxCell>
        <mxCell id="jjL_H0jXXh8-tqAnvM_W-10" value="" style="sketch=0;outlineConnect=0;fontColor=#232F3E;gradientColor=none;fillColor=#232F3D;strokeColor=none;dashed=0;verticalLabelPosition=bottom;verticalAlign=top;align=center;html=1;fontSize=12;fontStyle=1;aspect=fixed;pointerEvents=1;shape=mxgraph.aws4.recover;strokeWidth=1;container=0;fontFamily=Times New Roman;" parent="1" vertex="1">
          <mxGeometry x="306.8889791183295" y="399" width="58" height="58" as="geometry" />
        </mxCell>
        <mxCell id="jjL_H0jXXh8-tqAnvM_W-12" value="" style="whiteSpace=wrap;html=1;aspect=fixed;strokeWidth=2;container=0;fillColor=#dae8fc;strokeColor=#6c8ebf;fontFamily=Times New Roman;fontStyle=1" parent="1" vertex="1">
          <mxGeometry x="295.88953596287706" y="514" width="80" height="80" as="geometry" />
        </mxCell>
        <mxCell id="jjL_H0jXXh8-tqAnvM_W-13" value="" style="sketch=0;outlineConnect=0;fontColor=#232F3E;gradientColor=none;fillColor=#232F3D;strokeColor=none;dashed=0;verticalLabelPosition=bottom;verticalAlign=top;align=center;html=1;fontSize=12;fontStyle=1;aspect=fixed;pointerEvents=1;shape=mxgraph.aws4.recover;strokeWidth=1;container=0;fontFamily=Times New Roman;" parent="1" vertex="1">
          <mxGeometry x="306.8889791183295" y="525" width="58" height="58" as="geometry" />
        </mxCell>
        <mxCell id="jjL_H0jXXh8-tqAnvM_W-22" value="" style="whiteSpace=wrap;html=1;aspect=fixed;strokeWidth=2;container=0;fillColor=#d5e8d4;strokeColor=#82b366;fontFamily=Times New Roman;fontStyle=1" parent="1" vertex="1">
          <mxGeometry x="458.90255220417635" y="296" width="80" height="80" as="geometry" />
        </mxCell>
        <mxCell id="jjL_H0jXXh8-tqAnvM_W-23" value="" style="sketch=0;outlineConnect=0;fontColor=#232F3E;gradientColor=none;fillColor=#232F3D;strokeColor=none;dashed=0;verticalLabelPosition=bottom;verticalAlign=top;align=center;html=1;fontSize=12;fontStyle=1;aspect=fixed;pointerEvents=1;shape=mxgraph.aws4.recover;strokeWidth=1;container=0;fontFamily=Times New Roman;" parent="1" vertex="1">
          <mxGeometry x="469.90199535962876" y="307" width="58" height="58" as="geometry" />
        </mxCell>
        <mxCell id="jjL_H0jXXh8-tqAnvM_W-25" value="" style="whiteSpace=wrap;html=1;aspect=fixed;strokeWidth=2;container=0;fillColor=#d5e8d4;strokeColor=#82b366;fontFamily=Times New Roman;fontStyle=1" parent="1" vertex="1">
          <mxGeometry x="458.90255220417635" y="388" width="80" height="80" as="geometry" />
        </mxCell>
        <mxCell id="jjL_H0jXXh8-tqAnvM_W-30" value="" style="endArrow=classic;html=1;rounded=0;exitX=1;exitY=0.5;exitDx=0;exitDy=0;entryX=0;entryY=0.5;entryDx=0;entryDy=0;strokeWidth=2;fontFamily=Times New Roman;fontStyle=1" parent="1" source="jjL_H0jXXh8-tqAnvM_W-9" target="jjL_H0jXXh8-tqAnvM_W-25" edge="1">
          <mxGeometry width="50" height="50" relative="1" as="geometry">
            <mxPoint x="718.5313225058004" y="628" as="sourcePoint" />
            <mxPoint x="805.0742459396752" y="578" as="targetPoint" />
          </mxGeometry>
        </mxCell>
        <mxCell id="jjL_H0jXXh8-tqAnvM_W-26" value="" style="sketch=0;outlineConnect=0;fontColor=#232F3E;gradientColor=none;fillColor=#232F3D;strokeColor=none;dashed=0;verticalLabelPosition=bottom;verticalAlign=top;align=center;html=1;fontSize=12;fontStyle=1;aspect=fixed;pointerEvents=1;shape=mxgraph.aws4.recover;strokeWidth=1;container=0;fontFamily=Times New Roman;" parent="1" vertex="1">
          <mxGeometry x="469.90199535962876" y="399" width="58" height="58" as="geometry" />
        </mxCell>
        <mxCell id="jjL_H0jXXh8-tqAnvM_W-28" value="" style="whiteSpace=wrap;html=1;aspect=fixed;strokeWidth=2;container=0;fillColor=#d5e8d4;strokeColor=#82b366;fontFamily=Times New Roman;fontStyle=1" parent="1" vertex="1">
          <mxGeometry x="458.90255220417635" y="514" width="80" height="80" as="geometry" />
        </mxCell>
        <mxCell id="jjL_H0jXXh8-tqAnvM_W-31" value="" style="endArrow=classic;html=1;rounded=0;exitX=1;exitY=0.5;exitDx=0;exitDy=0;entryX=0;entryY=0.5;entryDx=0;entryDy=0;strokeWidth=2;fontFamily=Times New Roman;fontStyle=1" parent="1" source="jjL_H0jXXh8-tqAnvM_W-12" target="jjL_H0jXXh8-tqAnvM_W-28" edge="1">
          <mxGeometry width="50" height="50" relative="1" as="geometry">
            <mxPoint x="718.5313225058004" y="514" as="sourcePoint" />
            <mxPoint x="805.0742459396752" y="464" as="targetPoint" />
          </mxGeometry>
        </mxCell>
        <mxCell id="jjL_H0jXXh8-tqAnvM_W-29" value="" style="sketch=0;outlineConnect=0;fontColor=#232F3E;gradientColor=none;fillColor=#232F3D;strokeColor=none;dashed=0;verticalLabelPosition=bottom;verticalAlign=top;align=center;html=1;fontSize=12;fontStyle=1;aspect=fixed;pointerEvents=1;shape=mxgraph.aws4.recover;strokeWidth=1;container=0;fontFamily=Times New Roman;" parent="1" vertex="1">
          <mxGeometry x="469.90199535962876" y="525" width="58" height="58" as="geometry" />
        </mxCell>
        <mxCell id="jjL_H0jXXh8-tqAnvM_W-36" value="" style="whiteSpace=wrap;html=1;aspect=fixed;strokeWidth=2;container=0;fillColor=#ffe6cc;strokeColor=#d79b00;fontFamily=Times New Roman;fontStyle=1" parent="1" vertex="1">
          <mxGeometry x="820.6519721577725" y="296" width="80" height="80" as="geometry" />
        </mxCell>
        <mxCell id="jjL_H0jXXh8-tqAnvM_W-37" value="" style="sketch=0;outlineConnect=0;fontColor=#232F3E;gradientColor=none;fillColor=#232F3D;strokeColor=none;dashed=0;verticalLabelPosition=bottom;verticalAlign=top;align=center;html=1;fontSize=12;fontStyle=1;aspect=fixed;pointerEvents=1;shape=mxgraph.aws4.recover;strokeWidth=1;container=0;fontFamily=Times New Roman;" parent="1" vertex="1">
          <mxGeometry x="831.6514153132251" y="307" width="58" height="58" as="geometry" />
        </mxCell>
        <mxCell id="jjL_H0jXXh8-tqAnvM_W-39" value="" style="whiteSpace=wrap;html=1;aspect=fixed;strokeWidth=2;container=0;fillColor=#ffe6cc;strokeColor=#d79b00;fontFamily=Times New Roman;fontStyle=1" parent="1" vertex="1">
          <mxGeometry x="820.6519721577725" y="388" width="80" height="80" as="geometry" />
        </mxCell>
        <mxCell id="jjL_H0jXXh8-tqAnvM_W-40" value="" style="sketch=0;outlineConnect=0;fontColor=#232F3E;gradientColor=none;fillColor=#232F3D;strokeColor=none;dashed=0;verticalLabelPosition=bottom;verticalAlign=top;align=center;html=1;fontSize=12;fontStyle=1;aspect=fixed;pointerEvents=1;shape=mxgraph.aws4.recover;strokeWidth=1;container=0;fontFamily=Times New Roman;" parent="1" vertex="1">
          <mxGeometry x="831.6514153132251" y="399" width="58" height="58" as="geometry" />
        </mxCell>
        <mxCell id="jjL_H0jXXh8-tqAnvM_W-42" value="" style="whiteSpace=wrap;html=1;aspect=fixed;strokeWidth=2;container=0;fillColor=#ffe6cc;strokeColor=#d79b00;fontFamily=Times New Roman;fontStyle=1" parent="1" vertex="1">
          <mxGeometry x="820.6519721577725" y="514" width="80" height="80" as="geometry" />
        </mxCell>
        <mxCell id="jjL_H0jXXh8-tqAnvM_W-43" value="" style="sketch=0;outlineConnect=0;fontColor=#232F3E;gradientColor=none;fillColor=#232F3D;strokeColor=none;dashed=0;verticalLabelPosition=bottom;verticalAlign=top;align=center;html=1;fontSize=12;fontStyle=1;aspect=fixed;pointerEvents=1;shape=mxgraph.aws4.recover;strokeWidth=1;container=0;fontFamily=Times New Roman;" parent="1" vertex="1">
          <mxGeometry x="831.6514153132251" y="525" width="58" height="58" as="geometry" />
        </mxCell>
        <mxCell id="jjL_H0jXXh8-tqAnvM_W-46" value="" style="whiteSpace=wrap;html=1;aspect=fixed;strokeWidth=2;container=0;fillColor=#f8cecc;strokeColor=#b85450;fontFamily=Times New Roman;fontStyle=1" parent="1" vertex="1">
          <mxGeometry x="1187.5939675174013" y="296" width="80" height="80" as="geometry" />
        </mxCell>
        <mxCell id="jjL_H0jXXh8-tqAnvM_W-47" value="" style="sketch=0;outlineConnect=0;fontColor=#232F3E;gradientColor=none;fillColor=#232F3D;strokeColor=none;dashed=0;verticalLabelPosition=bottom;verticalAlign=top;align=center;html=1;fontSize=12;fontStyle=1;aspect=fixed;pointerEvents=1;shape=mxgraph.aws4.recover;strokeWidth=1;container=0;fontFamily=Times New Roman;" parent="1" vertex="1">
          <mxGeometry x="1198.593410672854" y="307" width="58" height="58" as="geometry" />
        </mxCell>
        <mxCell id="jjL_H0jXXh8-tqAnvM_W-49" value="" style="whiteSpace=wrap;html=1;aspect=fixed;strokeWidth=2;container=0;fillColor=#f8cecc;strokeColor=#b85450;fontFamily=Times New Roman;fontStyle=1" parent="1" vertex="1">
          <mxGeometry x="1187.5939675174013" y="388" width="80" height="80" as="geometry" />
        </mxCell>
        <mxCell id="jjL_H0jXXh8-tqAnvM_W-50" value="" style="sketch=0;outlineConnect=0;fontColor=#232F3E;gradientColor=none;fillColor=#232F3D;strokeColor=none;dashed=0;verticalLabelPosition=bottom;verticalAlign=top;align=center;html=1;fontSize=12;fontStyle=1;aspect=fixed;pointerEvents=1;shape=mxgraph.aws4.recover;strokeWidth=1;container=0;fontFamily=Times New Roman;" parent="1" vertex="1">
          <mxGeometry x="1198.593410672854" y="399" width="58" height="58" as="geometry" />
        </mxCell>
        <mxCell id="jjL_H0jXXh8-tqAnvM_W-52" value="" style="whiteSpace=wrap;html=1;aspect=fixed;strokeWidth=2;container=0;fillColor=#f8cecc;strokeColor=#b85450;fontFamily=Times New Roman;fontStyle=1" parent="1" vertex="1">
          <mxGeometry x="1187.5939675174013" y="514" width="80" height="80" as="geometry" />
        </mxCell>
        <mxCell id="jjL_H0jXXh8-tqAnvM_W-53" value="" style="sketch=0;outlineConnect=0;fontColor=#232F3E;gradientColor=none;fillColor=#232F3D;strokeColor=none;dashed=0;verticalLabelPosition=bottom;verticalAlign=top;align=center;html=1;fontSize=12;fontStyle=1;aspect=fixed;pointerEvents=1;shape=mxgraph.aws4.recover;strokeWidth=1;container=0;fontFamily=Times New Roman;" parent="1" vertex="1">
          <mxGeometry x="1198.593410672854" y="525" width="58" height="58" as="geometry" />
        </mxCell>
        <mxCell id="jjL_H0jXXh8-tqAnvM_W-56" value="" style="whiteSpace=wrap;html=1;aspect=fixed;strokeWidth=2;container=0;fillColor=#dae8fc;strokeColor=#6c8ebf;fontFamily=Times New Roman;fontStyle=1" parent="1" vertex="1">
          <mxGeometry x="1341.6069837587006" y="296" width="80" height="80" as="geometry" />
        </mxCell>
        <mxCell id="jjL_H0jXXh8-tqAnvM_W-57" value="" style="sketch=0;outlineConnect=0;fontColor=#232F3E;gradientColor=none;fillColor=#232F3D;strokeColor=none;dashed=0;verticalLabelPosition=bottom;verticalAlign=top;align=center;html=1;fontSize=12;fontStyle=1;aspect=fixed;pointerEvents=1;shape=mxgraph.aws4.recover;strokeWidth=1;container=0;fontFamily=Times New Roman;" parent="1" vertex="1">
          <mxGeometry x="1352.6064269141532" y="307" width="58" height="58" as="geometry" />
        </mxCell>
        <mxCell id="jjL_H0jXXh8-tqAnvM_W-59" value="" style="whiteSpace=wrap;html=1;aspect=fixed;strokeWidth=2;container=0;fillColor=#dae8fc;strokeColor=#6c8ebf;fontFamily=Times New Roman;fontStyle=1" parent="1" vertex="1">
          <mxGeometry x="1341.6069837587006" y="388" width="80" height="80" as="geometry" />
        </mxCell>
        <mxCell id="jjL_H0jXXh8-tqAnvM_W-60" value="" style="sketch=0;outlineConnect=0;fontColor=#232F3E;gradientColor=none;fillColor=#232F3D;strokeColor=none;dashed=0;verticalLabelPosition=bottom;verticalAlign=top;align=center;html=1;fontSize=12;fontStyle=1;aspect=fixed;pointerEvents=1;shape=mxgraph.aws4.recover;strokeWidth=1;container=0;fontFamily=Times New Roman;" parent="1" vertex="1">
          <mxGeometry x="1352.6064269141532" y="399" width="58" height="58" as="geometry" />
        </mxCell>
        <mxCell id="jjL_H0jXXh8-tqAnvM_W-62" value="" style="whiteSpace=wrap;html=1;aspect=fixed;strokeWidth=2;container=0;fillColor=#dae8fc;strokeColor=#6c8ebf;fontFamily=Times New Roman;fontStyle=1" parent="1" vertex="1">
          <mxGeometry x="1341.6069837587006" y="514" width="80" height="80" as="geometry" />
        </mxCell>
        <mxCell id="jjL_H0jXXh8-tqAnvM_W-63" value="" style="sketch=0;outlineConnect=0;fontColor=#232F3E;gradientColor=none;fillColor=#232F3D;strokeColor=none;dashed=0;verticalLabelPosition=bottom;verticalAlign=top;align=center;html=1;fontSize=12;fontStyle=1;aspect=fixed;pointerEvents=1;shape=mxgraph.aws4.recover;strokeWidth=1;container=0;fontFamily=Times New Roman;" parent="1" vertex="1">
          <mxGeometry x="1352.6064269141532" y="525" width="58" height="58" as="geometry" />
        </mxCell>
        <mxCell id="jjL_H0jXXh8-tqAnvM_W-97" value="" style="group;fontFamily=Times New Roman;fontStyle=1" parent="1" vertex="1" connectable="0">
          <mxGeometry x="323" y="470" width="34.62" height="40" as="geometry" />
        </mxCell>
        <mxCell id="jjL_H0jXXh8-tqAnvM_W-14" value="" style="shape=waypoint;sketch=0;fillStyle=solid;size=6;pointerEvents=1;points=[];fillColor=none;resizable=0;rotatable=0;perimeter=centerPerimeter;snapToPoint=1;container=0;fontFamily=Times New Roman;fontStyle=1" parent="jjL_H0jXXh8-tqAnvM_W-97" vertex="1">
          <mxGeometry width="20" height="20" as="geometry" />
        </mxCell>
        <mxCell id="jjL_H0jXXh8-tqAnvM_W-15" value="" style="shape=waypoint;sketch=0;fillStyle=solid;size=6;pointerEvents=1;points=[];fillColor=none;resizable=0;rotatable=0;perimeter=centerPerimeter;snapToPoint=1;container=0;fontFamily=Times New Roman;fontStyle=1" parent="jjL_H0jXXh8-tqAnvM_W-97" vertex="1">
          <mxGeometry y="12.333333333333332" width="20" height="20" as="geometry" />
        </mxCell>
        <mxCell id="jjL_H0jXXh8-tqAnvM_W-16" value="" style="shape=waypoint;sketch=0;fillStyle=solid;size=6;pointerEvents=1;points=[];fillColor=none;resizable=0;rotatable=0;perimeter=centerPerimeter;snapToPoint=1;container=0;fontFamily=Times New Roman;fontStyle=1" parent="jjL_H0jXXh8-tqAnvM_W-97" vertex="1">
          <mxGeometry y="25.666666666666664" width="20" height="20" as="geometry" />
        </mxCell>
        <mxCell id="jjL_H0jXXh8-tqAnvM_W-98" value="" style="group;fontFamily=Times New Roman;fontStyle=1" parent="1" vertex="1" connectable="0">
          <mxGeometry x="483" y="468" width="34.62" height="40" as="geometry" />
        </mxCell>
        <mxCell id="jjL_H0jXXh8-tqAnvM_W-99" value="" style="shape=waypoint;sketch=0;fillStyle=solid;size=6;pointerEvents=1;points=[];fillColor=none;resizable=0;rotatable=0;perimeter=centerPerimeter;snapToPoint=1;container=0;fontFamily=Times New Roman;fontStyle=1" parent="jjL_H0jXXh8-tqAnvM_W-98" vertex="1">
          <mxGeometry x="4.000327077747989" width="20" height="20" as="geometry" />
        </mxCell>
        <mxCell id="jjL_H0jXXh8-tqAnvM_W-100" value="" style="shape=waypoint;sketch=0;fillStyle=solid;size=6;pointerEvents=1;points=[];fillColor=none;resizable=0;rotatable=0;perimeter=centerPerimeter;snapToPoint=1;container=0;fontFamily=Times New Roman;fontStyle=1" parent="jjL_H0jXXh8-tqAnvM_W-98" vertex="1">
          <mxGeometry x="4.000327077747989" y="13.333333333333332" width="20" height="20" as="geometry" />
        </mxCell>
        <mxCell id="jjL_H0jXXh8-tqAnvM_W-101" value="" style="shape=waypoint;sketch=0;fillStyle=solid;size=6;pointerEvents=1;points=[];fillColor=none;resizable=0;rotatable=0;perimeter=centerPerimeter;snapToPoint=1;container=0;fontFamily=Times New Roman;fontStyle=1" parent="jjL_H0jXXh8-tqAnvM_W-98" vertex="1">
          <mxGeometry x="4.000327077747989" y="25.666666666666664" width="20" height="20" as="geometry" />
        </mxCell>
        <mxCell id="jjL_H0jXXh8-tqAnvM_W-102" value="" style="group;fontFamily=Times New Roman;fontStyle=1" parent="1" vertex="1" connectable="0">
          <mxGeometry x="847" y="469" width="34.62" height="40" as="geometry" />
        </mxCell>
        <mxCell id="jjL_H0jXXh8-tqAnvM_W-103" value="" style="shape=waypoint;sketch=0;fillStyle=solid;size=6;pointerEvents=1;points=[];fillColor=none;resizable=0;rotatable=0;perimeter=centerPerimeter;snapToPoint=1;container=0;fontFamily=Times New Roman;fontStyle=1" parent="jjL_H0jXXh8-tqAnvM_W-102" vertex="1">
          <mxGeometry width="20" height="20" as="geometry" />
        </mxCell>
        <mxCell id="jjL_H0jXXh8-tqAnvM_W-104" value="" style="shape=waypoint;sketch=0;fillStyle=solid;size=6;pointerEvents=1;points=[];fillColor=none;resizable=0;rotatable=0;perimeter=centerPerimeter;snapToPoint=1;container=0;fontFamily=Times New Roman;fontStyle=1" parent="jjL_H0jXXh8-tqAnvM_W-102" vertex="1">
          <mxGeometry y="12.333333333333332" width="20" height="20" as="geometry" />
        </mxCell>
        <mxCell id="jjL_H0jXXh8-tqAnvM_W-105" value="" style="shape=waypoint;sketch=0;fillStyle=solid;size=6;pointerEvents=1;points=[];fillColor=none;resizable=0;rotatable=0;perimeter=centerPerimeter;snapToPoint=1;container=0;fontFamily=Times New Roman;fontStyle=1" parent="jjL_H0jXXh8-tqAnvM_W-102" vertex="1">
          <mxGeometry y="25.666666666666664" width="20" height="20" as="geometry" />
        </mxCell>
        <mxCell id="jjL_H0jXXh8-tqAnvM_W-106" value="" style="group;fontFamily=Times New Roman;fontStyle=1" parent="1" vertex="1" connectable="0">
          <mxGeometry x="1213" y="468" width="34.62" height="40" as="geometry" />
        </mxCell>
        <mxCell id="jjL_H0jXXh8-tqAnvM_W-107" value="" style="shape=waypoint;sketch=0;fillStyle=solid;size=6;pointerEvents=1;points=[];fillColor=none;resizable=0;rotatable=0;perimeter=centerPerimeter;snapToPoint=1;container=0;fontFamily=Times New Roman;fontStyle=1" parent="jjL_H0jXXh8-tqAnvM_W-106" vertex="1">
          <mxGeometry width="20" height="20" as="geometry" />
        </mxCell>
        <mxCell id="jjL_H0jXXh8-tqAnvM_W-108" value="" style="shape=waypoint;sketch=0;fillStyle=solid;size=6;pointerEvents=1;points=[];fillColor=none;resizable=0;rotatable=0;perimeter=centerPerimeter;snapToPoint=1;container=0;fontFamily=Times New Roman;fontStyle=1" parent="jjL_H0jXXh8-tqAnvM_W-106" vertex="1">
          <mxGeometry y="13.333333333333332" width="20" height="20" as="geometry" />
        </mxCell>
        <mxCell id="jjL_H0jXXh8-tqAnvM_W-109" value="" style="shape=waypoint;sketch=0;fillStyle=solid;size=6;pointerEvents=1;points=[];fillColor=none;resizable=0;rotatable=0;perimeter=centerPerimeter;snapToPoint=1;container=0;fontFamily=Times New Roman;fontStyle=1" parent="jjL_H0jXXh8-tqAnvM_W-106" vertex="1">
          <mxGeometry y="25.666666666666664" width="20" height="20" as="geometry" />
        </mxCell>
        <mxCell id="jjL_H0jXXh8-tqAnvM_W-110" value="" style="group;fontFamily=Times New Roman;fontStyle=1" parent="1" vertex="1" connectable="0">
          <mxGeometry x="1369.31" y="468" width="34.62" height="40" as="geometry" />
        </mxCell>
        <mxCell id="jjL_H0jXXh8-tqAnvM_W-111" value="" style="shape=waypoint;sketch=0;fillStyle=solid;size=6;pointerEvents=1;points=[];fillColor=none;resizable=0;rotatable=0;perimeter=centerPerimeter;snapToPoint=1;container=0;fontFamily=Times New Roman;fontStyle=1" parent="jjL_H0jXXh8-tqAnvM_W-110" vertex="1">
          <mxGeometry width="20" height="20" as="geometry" />
        </mxCell>
        <mxCell id="jjL_H0jXXh8-tqAnvM_W-112" value="" style="shape=waypoint;sketch=0;fillStyle=solid;size=6;pointerEvents=1;points=[];fillColor=none;resizable=0;rotatable=0;perimeter=centerPerimeter;snapToPoint=1;container=0;fontFamily=Times New Roman;fontStyle=1" parent="jjL_H0jXXh8-tqAnvM_W-110" vertex="1">
          <mxGeometry y="13.333333333333332" width="20" height="20" as="geometry" />
        </mxCell>
        <mxCell id="jjL_H0jXXh8-tqAnvM_W-113" value="" style="shape=waypoint;sketch=0;fillStyle=solid;size=6;pointerEvents=1;points=[];fillColor=none;resizable=0;rotatable=0;perimeter=centerPerimeter;snapToPoint=1;container=0;fontFamily=Times New Roman;fontStyle=1" parent="jjL_H0jXXh8-tqAnvM_W-110" vertex="1">
          <mxGeometry y="25.666666666666664" width="20" height="20" as="geometry" />
        </mxCell>
        <mxCell id="jjL_H0jXXh8-tqAnvM_W-114" value="" style="shape=curlyBracket;whiteSpace=wrap;html=1;rounded=1;labelPosition=left;verticalLabelPosition=middle;align=right;verticalAlign=middle;rotation=-90;size=0.5;fontSize=15;fontFamily=Times New Roman;fontStyle=1" parent="1" vertex="1">
          <mxGeometry x="689.6" y="32.75" width="34.62" height="1260.5" as="geometry" />
        </mxCell>
        <mxCell id="jjL_H0jXXh8-tqAnvM_W-115" value="" style="shape=curlyBracket;whiteSpace=wrap;html=1;rounded=1;flipH=1;labelPosition=right;verticalLabelPosition=middle;align=left;verticalAlign=middle;rotation=90;fontSize=15;fontFamily=Times New Roman;fontStyle=1" parent="1" vertex="1">
          <mxGeometry x="1399.75" y="586" width="34.62" height="154" as="geometry" />
        </mxCell>
        <mxCell id="jjL_H0jXXh8-tqAnvM_W-116" value="" style="endArrow=classic;html=1;rounded=0;exitX=1;exitY=0.5;exitDx=0;exitDy=0;strokeWidth=2;fontFamily=Times New Roman;fontStyle=1" parent="1" edge="1">
          <mxGeometry width="50" height="50" relative="1" as="geometry">
            <mxPoint x="1421.6056612529" y="334.4" as="sourcePoint" />
            <mxPoint x="1490.84" y="334.9" as="targetPoint" />
          </mxGeometry>
        </mxCell>
        <mxCell id="jjL_H0jXXh8-tqAnvM_W-117" value="" style="endArrow=classic;html=1;rounded=0;exitX=1;exitY=0.5;exitDx=0;exitDy=0;strokeWidth=2;fontFamily=Times New Roman;fontStyle=1" parent="1" edge="1">
          <mxGeometry width="50" height="50" relative="1" as="geometry">
            <mxPoint x="1421.6056612529" y="426.4" as="sourcePoint" />
            <mxPoint x="1490.84" y="426.9" as="targetPoint" />
          </mxGeometry>
        </mxCell>
        <mxCell id="jjL_H0jXXh8-tqAnvM_W-118" value="" style="endArrow=classic;html=1;rounded=0;exitX=1;exitY=0.5;exitDx=0;exitDy=0;strokeWidth=2;fontFamily=Times New Roman;fontStyle=1" parent="1" edge="1">
          <mxGeometry width="50" height="50" relative="1" as="geometry">
            <mxPoint x="1421.6056612529" y="552.82" as="sourcePoint" />
            <mxPoint x="1490.84" y="553.32" as="targetPoint" />
          </mxGeometry>
        </mxCell>
        <mxCell id="jjL_H0jXXh8-tqAnvM_W-119" value="Epoch T" style="text;html=1;strokeColor=none;fillColor=none;align=center;verticalAlign=middle;whiteSpace=wrap;rounded=0;fontSize=20;fontFamily=Times New Roman;fontStyle=1" parent="1" vertex="1">
          <mxGeometry x="671.5" y="671" width="76.33" height="30" as="geometry" />
        </mxCell>
        <mxCell id="jjL_H0jXXh8-tqAnvM_W-120" value="Epoch T+1" style="text;html=1;strokeColor=none;fillColor=none;align=center;verticalAlign=middle;whiteSpace=wrap;rounded=0;fontSize=20;fontFamily=Times New Roman;fontStyle=1" parent="1" vertex="1">
          <mxGeometry x="1375.0032946635727" y="671" width="103.85150812064965" height="30" as="geometry" />
        </mxCell>
        <mxCell id="jjL_H0jXXh8-tqAnvM_W-121" value="" style="endArrow=classic;html=1;rounded=0;strokeWidth=2;fontFamily=Times New Roman;fontStyle=1;entryX=0;entryY=0.5;entryDx=0;entryDy=0;exitX=1;exitY=0.5;exitDx=0;exitDy=0;" parent="1" source="IwBUSf1d3M7UVpx8SBOi-1" target="jjL_H0jXXh8-tqAnvM_W-5" edge="1">
          <mxGeometry width="50" height="50" relative="1" as="geometry">
            <mxPoint x="230" y="336" as="sourcePoint" />
            <mxPoint x="295.88953596287706" y="335.58" as="targetPoint" />
          </mxGeometry>
        </mxCell>
        <mxCell id="jjL_H0jXXh8-tqAnvM_W-122" value="" style="endArrow=classic;html=1;rounded=0;exitX=1;exitY=0.5;exitDx=0;exitDy=0;entryX=0;entryY=0.5;entryDx=0;entryDy=0;strokeWidth=2;fontFamily=Times New Roman;fontStyle=1;" parent="1" source="IwBUSf1d3M7UVpx8SBOi-3" target="jjL_H0jXXh8-tqAnvM_W-9" edge="1">
          <mxGeometry width="50" height="50" relative="1" as="geometry">
            <mxPoint x="226.65519721577726" y="427.58" as="sourcePoint" />
            <mxPoint x="295.88953596287706" y="427.58" as="targetPoint" />
          </mxGeometry>
        </mxCell>
        <mxCell id="jjL_H0jXXh8-tqAnvM_W-123" value="" style="endArrow=classic;html=1;rounded=0;entryX=0;entryY=0.5;entryDx=0;entryDy=0;strokeWidth=2;fontFamily=Times New Roman;fontStyle=1" parent="1" target="jjL_H0jXXh8-tqAnvM_W-12" edge="1">
          <mxGeometry width="50" height="50" relative="1" as="geometry">
            <mxPoint x="230" y="554" as="sourcePoint" />
            <mxPoint x="295.88953596287706" y="553.17" as="targetPoint" />
          </mxGeometry>
        </mxCell>
        <mxCell id="jjL_H0jXXh8-tqAnvM_W-124" value="Broadcast Local Account Graphs" style="rounded=1;whiteSpace=wrap;html=1;fillColor=#F0FCFF;dashed=1;fontSize=20;fontFamily=Times New Roman;fontStyle=0;spacing=0;spacingTop=-3;" parent="1" vertex="1">
          <mxGeometry x="580.0589559164733" y="267" width="173.0858468677494" height="59" as="geometry" />
        </mxCell>
        <mxCell id="jjL_H0jXXh8-tqAnvM_W-125" value="Migrate&lt;br style=&quot;font-size: 20px;&quot;&gt;Account States" style="rounded=1;whiteSpace=wrap;html=1;fillColor=#F0FCFF;dashed=1;fontSize=20;fontFamily=Times New Roman;fontStyle=0;spacing=0;spacingTop=-3;" parent="1" vertex="1">
          <mxGeometry x="959.1192343387471" y="267" width="173.0858468677494" height="59" as="geometry" />
        </mxCell>
        <mxCell id="jjL_H0jXXh8-tqAnvM_W-127" value="" style="shape=curlyBracket;whiteSpace=wrap;html=1;rounded=1;flipH=1;labelPosition=right;verticalLabelPosition=middle;align=left;verticalAlign=middle;rotation=90;fontFamily=Times New Roman;fontStyle=1" parent="1" vertex="1">
          <mxGeometry x="243.36" y="430.86" width="34.62" height="366.26" as="geometry" />
        </mxCell>
        <mxCell id="jjL_H0jXXh8-tqAnvM_W-129" value="Regular Phase" style="text;html=1;strokeColor=none;fillColor=none;align=center;verticalAlign=middle;whiteSpace=wrap;rounded=0;fontSize=20;fontFamily=Times New Roman;fontStyle=1" parent="1" vertex="1">
          <mxGeometry x="170.76" y="621.5" width="180.33" height="30" as="geometry" />
        </mxCell>
        <mxCell id="jjL_H0jXXh8-tqAnvM_W-130" value="" style="shape=curlyBracket;whiteSpace=wrap;html=1;rounded=1;flipH=1;labelPosition=right;verticalLabelPosition=middle;align=left;verticalAlign=middle;rotation=90;fontFamily=Times New Roman;fontStyle=1" parent="1" vertex="1">
          <mxGeometry x="617.19" y="440.38" width="34.62" height="347.25" as="geometry" />
        </mxCell>
        <mxCell id="jjL_H0jXXh8-tqAnvM_W-131" value="Prepare Phase" style="text;html=1;strokeColor=none;fillColor=none;align=center;verticalAlign=middle;whiteSpace=wrap;rounded=0;fontSize=20;fontFamily=Times New Roman;fontStyle=1" parent="1" vertex="1">
          <mxGeometry x="553" y="621.5" width="177" height="30" as="geometry" />
        </mxCell>
        <mxCell id="jjL_H0jXXh8-tqAnvM_W-132" value="" style="shape=curlyBracket;whiteSpace=wrap;html=1;rounded=1;flipH=1;labelPosition=right;verticalLabelPosition=middle;align=left;verticalAlign=middle;rotation=90;fontFamily=Times New Roman;fontStyle=1" parent="1" vertex="1">
          <mxGeometry x="985.37" y="436.75" width="34.62" height="354.5" as="geometry" />
        </mxCell>
        <mxCell id="jjL_H0jXXh8-tqAnvM_W-133" value="Allocation Phase" style="text;html=1;strokeColor=none;fillColor=none;align=center;verticalAlign=middle;whiteSpace=wrap;rounded=0;fontSize=20;fontFamily=Times New Roman;fontStyle=1" parent="1" vertex="1">
          <mxGeometry x="900.65" y="621.5" width="209.35" height="30" as="geometry" />
        </mxCell>
        <mxCell id="jjL_H0jXXh8-tqAnvM_W-134" value="" style="shape=curlyBracket;whiteSpace=wrap;html=1;rounded=1;flipH=1;labelPosition=right;verticalLabelPosition=middle;align=left;verticalAlign=middle;rotation=90;fontFamily=Times New Roman;fontStyle=1" parent="1" vertex="1">
          <mxGeometry x="1247.01" y="541.19" width="34.62" height="145.63" as="geometry" />
        </mxCell>
        <mxCell id="jjL_H0jXXh8-tqAnvM_W-135" value="State Phase" style="text;html=1;strokeColor=none;fillColor=none;align=center;verticalAlign=middle;whiteSpace=wrap;rounded=0;fontSize=20;fontFamily=Times New Roman;fontStyle=1" parent="1" vertex="1">
          <mxGeometry x="1198.59" y="621.5" width="131.41" height="30" as="geometry" />
        </mxCell>
        <mxCell id="jjL_H0jXXh8-tqAnvM_W-136" value="" style="shape=curlyBracket;whiteSpace=wrap;html=1;rounded=1;flipH=1;labelPosition=right;verticalLabelPosition=middle;align=left;verticalAlign=middle;rotation=90;fontFamily=Times New Roman;fontStyle=1" parent="1" vertex="1">
          <mxGeometry x="1400.34" y="537.88" width="34.62" height="152.25" as="geometry" />
        </mxCell>
        <mxCell id="jjL_H0jXXh8-tqAnvM_W-137" value="Regular Phase" style="text;html=1;strokeColor=none;fillColor=none;align=center;verticalAlign=middle;whiteSpace=wrap;rounded=0;fontSize=20;fontFamily=Times New Roman;fontStyle=1" parent="1" vertex="1">
          <mxGeometry x="1323.001252900232" y="621.5" width="192.12529002320184" height="30" as="geometry" />
        </mxCell>
        <mxCell id="IwBUSf1d3M7UVpx8SBOi-1" value="" style="whiteSpace=wrap;html=1;aspect=fixed;strokeWidth=2;container=0;fillColor=#dae8fc;strokeColor=#6c8ebf;fontFamily=Times New Roman;fontStyle=1" parent="1" vertex="1">
          <mxGeometry x="149.99953596287708" y="296" width="80" height="80" as="geometry" />
        </mxCell>
        <mxCell id="IwBUSf1d3M7UVpx8SBOi-2" value="" style="sketch=0;outlineConnect=0;fontColor=#232F3E;gradientColor=none;fillColor=#232F3D;strokeColor=none;dashed=0;verticalLabelPosition=bottom;verticalAlign=top;align=center;html=1;fontSize=12;fontStyle=1;aspect=fixed;pointerEvents=1;shape=mxgraph.aws4.recover;strokeWidth=1;container=0;fontFamily=Times New Roman;" parent="1" vertex="1">
          <mxGeometry x="160.9989791183295" y="307" width="58" height="58" as="geometry" />
        </mxCell>
        <mxCell id="IwBUSf1d3M7UVpx8SBOi-3" value="" style="whiteSpace=wrap;html=1;aspect=fixed;strokeWidth=2;container=0;fillColor=#dae8fc;strokeColor=#6c8ebf;fontFamily=Times New Roman;fontStyle=1" parent="1" vertex="1">
          <mxGeometry x="149.99953596287708" y="388" width="80" height="80" as="geometry" />
        </mxCell>
        <mxCell id="IwBUSf1d3M7UVpx8SBOi-4" value="" style="sketch=0;outlineConnect=0;fontColor=#232F3E;gradientColor=none;fillColor=#232F3D;strokeColor=none;dashed=0;verticalLabelPosition=bottom;verticalAlign=top;align=center;html=1;fontSize=12;fontStyle=1;aspect=fixed;pointerEvents=1;shape=mxgraph.aws4.recover;strokeWidth=1;container=0;fontFamily=Times New Roman;" parent="1" vertex="1">
          <mxGeometry x="160.9989791183295" y="401" width="58" height="58" as="geometry" />
        </mxCell>
        <mxCell id="IwBUSf1d3M7UVpx8SBOi-5" value="" style="whiteSpace=wrap;html=1;aspect=fixed;strokeWidth=2;container=0;fillColor=#dae8fc;strokeColor=#6c8ebf;fontFamily=Times New Roman;fontStyle=1" parent="1" vertex="1">
          <mxGeometry x="149.99953596287708" y="514" width="80" height="80" as="geometry" />
        </mxCell>
        <mxCell id="IwBUSf1d3M7UVpx8SBOi-6" value="" style="sketch=0;outlineConnect=0;fontColor=#232F3E;gradientColor=none;fillColor=#232F3D;strokeColor=none;dashed=0;verticalLabelPosition=bottom;verticalAlign=top;align=center;html=1;fontSize=12;fontStyle=1;aspect=fixed;pointerEvents=1;shape=mxgraph.aws4.recover;strokeWidth=1;container=0;fontFamily=Times New Roman;" parent="1" vertex="1">
          <mxGeometry x="160.9989791183295" y="525" width="58" height="58" as="geometry" />
        </mxCell>
        <mxCell id="IwBUSf1d3M7UVpx8SBOi-8" value="Shard Block" style="text;html=1;strokeColor=none;fillColor=none;align=center;verticalAlign=middle;whiteSpace=wrap;rounded=0;fontSize=20;container=0;fontFamily=Times New Roman;fontStyle=1" parent="1" vertex="1">
          <mxGeometry x="134.10000000000002" y="266" width="111.79" height="30" as="geometry" />
        </mxCell>
        <mxCell id="IwBUSf1d3M7UVpx8SBOi-10" value="" style="endArrow=classic;html=1;rounded=0;exitX=1;exitY=0.5;exitDx=0;exitDy=0;entryX=0;entryY=0.5;entryDx=0;entryDy=0;strokeWidth=2;fontFamily=Times New Roman;fontStyle=1;" parent="1" edge="1">
          <mxGeometry width="50" height="50" relative="1" as="geometry">
            <mxPoint x="84" y="427.76" as="sourcePoint" />
            <mxPoint x="150" y="427.76" as="targetPoint" />
          </mxGeometry>
        </mxCell>
        <mxCell id="IwBUSf1d3M7UVpx8SBOi-11" value="" style="endArrow=classic;html=1;rounded=0;strokeWidth=2;fontFamily=Times New Roman;fontStyle=1;entryX=0;entryY=0.5;entryDx=0;entryDy=0;exitX=1;exitY=0.5;exitDx=0;exitDy=0;" parent="1" edge="1">
          <mxGeometry width="50" height="50" relative="1" as="geometry">
            <mxPoint x="84" y="335.76" as="sourcePoint" />
            <mxPoint x="150" y="335.76" as="targetPoint" />
          </mxGeometry>
        </mxCell>
        <mxCell id="IwBUSf1d3M7UVpx8SBOi-12" value="" style="endArrow=classic;html=1;rounded=0;entryX=0;entryY=0.5;entryDx=0;entryDy=0;strokeWidth=2;fontFamily=Times New Roman;fontStyle=1" parent="1" edge="1">
          <mxGeometry width="50" height="50" relative="1" as="geometry">
            <mxPoint x="84" y="553.58" as="sourcePoint" />
            <mxPoint x="150" y="553.58" as="targetPoint" />
          </mxGeometry>
        </mxCell>
        <mxCell id="IwBUSf1d3M7UVpx8SBOi-13" value="" style="group;fontFamily=Times New Roman;fontStyle=1" parent="1" vertex="1" connectable="0">
          <mxGeometry x="180" y="470" width="34.62" height="40" as="geometry" />
        </mxCell>
        <mxCell id="IwBUSf1d3M7UVpx8SBOi-14" value="" style="shape=waypoint;sketch=0;fillStyle=solid;size=6;pointerEvents=1;points=[];fillColor=none;resizable=0;rotatable=0;perimeter=centerPerimeter;snapToPoint=1;container=0;fontFamily=Times New Roman;fontStyle=1" parent="IwBUSf1d3M7UVpx8SBOi-13" vertex="1">
          <mxGeometry width="20" height="20" as="geometry" />
        </mxCell>
        <mxCell id="IwBUSf1d3M7UVpx8SBOi-15" value="" style="shape=waypoint;sketch=0;fillStyle=solid;size=6;pointerEvents=1;points=[];fillColor=none;resizable=0;rotatable=0;perimeter=centerPerimeter;snapToPoint=1;container=0;fontFamily=Times New Roman;fontStyle=1" parent="IwBUSf1d3M7UVpx8SBOi-13" vertex="1">
          <mxGeometry y="12.333333333333332" width="20" height="20" as="geometry" />
        </mxCell>
        <mxCell id="IwBUSf1d3M7UVpx8SBOi-16" value="" style="shape=waypoint;sketch=0;fillStyle=solid;size=6;pointerEvents=1;points=[];fillColor=none;resizable=0;rotatable=0;perimeter=centerPerimeter;snapToPoint=1;container=0;fontFamily=Times New Roman;fontStyle=1" parent="IwBUSf1d3M7UVpx8SBOi-13" vertex="1">
          <mxGeometry y="25.666666666666664" width="20" height="20" as="geometry" />
        </mxCell>
      </root>
    </mxGraphModel>
  </diagram>
</mxfile>
